<?xml version="1.0" encoding="UTF-8" standalone="no"?><!DOCTYPE svg PUBLIC "-//W3C//DTD SVG 1.1//EN" "http://www.w3.org/Graphics/SVG/1.1/DTD/svg11.dtd"><svg width="100%" height="100%" viewBox="0 0 140 40" version="1.1" xmlns="http://www.w3.org/2000/svg" xmlns:xlink="http://www.w3.org/1999/xlink" xml:space="preserve" xmlns:serif="http://www.serif.com/" style="fill-rule:evenodd;clip-rule:evenodd;stroke-linejoin:round;stroke-miterlimit:1.41421;"><g><path d="M21.629,32.818l0,5.733c-1.333,0.455 -2.813,0.683 -4.439,0.683c-2.554,0 -4.509,-0.643 -5.867,-1.927c-1.358,-1.285 -2.037,-3.31 -2.037,-6.074l0,-13.343l-3.61,0l0,-5.537l3.61,0l0,-6.537l7.611,0l0,6.537l4.415,0l0,5.537l-4.415,0l0,12.416c0,1.041 0.203,1.748 0.61,2.122c0.406,0.374 1.097,0.561 2.073,0.561c0.764,0 1.447,-0.057 2.049,-0.171Z" style="fill:#fff;fill-rule:nonzero;"/><rect x="25.337" y="12.353" width="7.635" height="26.393" style="fill:#fff;fill-rule:nonzero;"/><path d="M59.353,14.255c1.455,1.594 2.183,4.204 2.183,7.831l0,16.66l-7.635,0l0,-16.709c0,-1.529 -0.321,-2.582 -0.964,-3.159c-0.642,-0.577 -1.646,-0.866 -3.012,-0.866c-1.805,0 -3.155,0.732 -4.049,2.195l0,18.539l-7.587,0l0,-26.393l7.123,0l0.268,3.049c0.911,-1.155 2.005,-2.033 3.281,-2.634c1.277,-0.602 2.696,-0.903 4.257,-0.903c2.634,0 4.679,0.797 6.135,2.39Z" style="fill:#fff;fill-rule:nonzero;"/><path d="M77.001,7.755c-0.667,0.561 -1,1.362 -1,2.403l0,2.195l5.195,0l0,5.537l-5.195,0l0,20.856l-7.635,0l0,-20.856l-3.854,0l0,-5.537l3.854,0l0,-2.195c0,-2.001 0.398,-3.704 1.195,-5.111c0.797,-1.406 1.939,-2.472 3.427,-3.195c1.488,-0.724 3.248,-1.086 5.281,-1.086c1.138,0 2.374,0.171 3.708,0.513l0,5.854c-0.618,-0.147 -1.325,-0.22 -2.122,-0.22c-1.236,0 -2.188,0.281 -2.854,0.842Z" style="fill:#fff;fill-rule:nonzero;"/><rect x="84.904" y="1.279" width="7.635" height="37.467" style="fill:#fff;fill-rule:nonzero;"/><rect x="98.393" y="12.353" width="7.635" height="26.393" style="fill:#fff;fill-rule:nonzero;"/><path d="M125.981,12.353l8.026,0l-7.245,12.879l7.562,13.514l-8.05,0l-4.439,-7.952l-4.391,7.952l-8.074,0l7.586,-13.514l-7.22,-12.879l8.074,0l4.025,7.44l4.146,-7.44Z" style="fill:#fff;fill-rule:nonzero;"/><path d="M108.093,10.488c-0.397,0 -0.744,-0.161 -1.004,-0.409c-0.261,-0.261 -0.41,-0.608 -0.41,-1.005c0,-0.148 0.025,-0.297 0.062,-0.434c0.011,-0.031 0.021,-0.062 0.032,-0.086c0,-0.001 0.001,-0.002 0.001,-0.003c0,0 0,0.001 0,0.001c0.001,-0.004 0.003,-0.008 0.005,-0.011c0,0.002 -0.001,0.003 -0.002,0.005c0.044,-0.079 0.088,-0.165 0.132,-0.242c-0.002,0.001 -0.004,0.002 -0.006,0.002c0.012,-0.013 0.024,-0.038 0.037,-0.05l-0.013,0c0,0 0,0.012 -0.012,0.012c0.322,-0.682 0.508,-1.45 0.508,-2.256c0,-2.89 -2.343,-5.246 -5.245,-5.246c-2.889,0 -5.245,2.344 -5.245,5.246c0,2.889 2.343,5.245 5.245,5.245c1.508,0 2.867,-0.641 3.821,-1.651c-0.008,0.009 -0.014,0.018 -0.014,0.026c0.099,0.385 0.298,0.72 0.57,0.992c0.397,0.397 0.943,0.633 1.538,0.633c0.422,-0.013 0.471,-0.732 0,-0.769Zm-3.348,-7.006c0.434,-0.248 0.98,-0.099 1.228,0.322c0.248,0.434 0.099,0.98 -0.323,1.228c-0.421,0.248 -0.979,0.112 -1.227,-0.322c-0.248,-0.422 -0.112,-0.98 0.322,-1.228Zm-2.554,-1.848c0.496,0 0.892,0.397 0.892,0.893c0,0.496 -0.396,0.893 -0.892,0.893c-0.496,0 -0.893,-0.397 -0.893,-0.893c-0.013,-0.496 0.397,-0.893 0.893,-0.893Zm-2.555,6.882c-0.434,0.248 -0.98,0.1 -1.228,-0.322c-0.248,-0.434 -0.099,-0.98 0.323,-1.228c0.434,-0.248 0.979,-0.099 1.227,0.323c0.248,0.421 0.1,0.979 -0.322,1.227Zm0.322,-3.806c-0.248,0.434 -0.793,0.57 -1.227,0.322c-0.434,-0.248 -0.571,-0.794 -0.323,-1.228c0.248,-0.434 0.794,-0.57 1.228,-0.322c0.422,0.248 0.57,0.806 0.322,1.228Zm2.233,5.654c-0.496,0 -0.893,-0.397 -0.893,-0.893c0,-0.496 0.397,-0.893 0.893,-0.893c0.496,0 0.892,0.397 0.892,0.893c0,0.496 -0.396,0.893 -0.892,0.893Zm0,-2.567c-0.992,0 -1.799,-0.806 -1.799,-1.798c0,-0.992 0.807,-1.798 1.799,-1.798c0.992,0 1.798,0.806 1.798,1.798c0,0.992 -0.806,1.798 -1.798,1.798Zm3.782,0.397c-0.248,0.422 -0.794,0.57 -1.228,0.322c-0.434,-0.248 -0.57,-0.793 -0.322,-1.227c0.248,-0.434 0.793,-0.571 1.227,-0.323c0.434,0.248 0.571,0.794 0.323,1.228Zm0.62,0.657c0,-0.012 0.012,-0.037 0.037,-0.062c-0.013,0.025 -0.025,0.037 -0.037,0.062Z" style="fill:#fff;fill-rule:nonzero;"/><path d="M29.487,0.78c-0.088,-0.047 -0.187,0.034 -0.182,0.148c0.003,0.061 0.005,0.123 0.005,0.17c0,1.611 -0.82,2.994 -1.993,3.595l0,0c-0.202,-0.331 -0.262,-0.923 -0.28,-1.271c-0.006,-0.122 -0.124,-0.187 -0.206,-0.114c-0.914,0.811 -1.503,2.108 -1.494,3.568c0.015,2.443 1.722,4.418 3.784,4.38c2.03,-0.037 3.666,-1.999 3.666,-4.413l0,-0.042c0,-2.685 -1.356,-4.995 -3.3,-6.021Z" style="fill:#fff;fill-rule:nonzero;"/></g></svg>